<svg xmlns="http://www.w3.org/2000/svg" xmlns:xlink="http://www.w3.org/1999/xlink" viewBox="0 0 435.03 200"><defs><style>.cls-1{fill:none;}.cls-2{clip-path:url(#clip-path);}.cls-3{fill:#fff;}</style><clipPath id="clip-path" transform="translate(0 0)"><rect class="cls-1" width="435.03" height="200"/></clipPath></defs><title>Lost Dot logo inline clean WHITE</title><g id="Layer_2" data-name="Layer 2"><g id="Layer_1-2" data-name="Layer 1"><g id="Lost_Dot_logo_inline_clean_WHITE" data-name="Lost Dot logo inline clean WHITE"><g class="cls-2"><g class="cls-2"><path class="cls-3" d="M16.08,154.33,57.38,83a.32.32,0,0,1,.27-.16.32.32,0,0,1,.28.16l37.19,64.24L67.68,194.64a100.73,100.73,0,0,1-51.6-40.31m168-.3L143,83a.32.32,0,0,0-.28-.16.32.32,0,0,0-.27.16l-37.19,64.24,27.38,47.3A100.66,100.66,0,0,0,184.11,154M76.35,197.17a100.25,100.25,0,0,0,47.63-.08L100.18,156ZM200,100a100.16,100.16,0,0,1-10.84,45.25L143.75,66.8a1.18,1.18,0,0,0-1-.59,1.2,1.2,0,0,0-1,.59l-41.49,71.68L58.69,66.8a1.2,1.2,0,0,0-2.07,0L11,145.58A100,100,0,1,1,200,100M116.88,51.94a16.63,16.63,0,1,0-33.25,0c0,8.21,13.24,30.37,15.9,34.73a.83.83,0,0,0,.73.41.82.82,0,0,0,.72-.41c2.66-4.36,15.9-26.52,15.9-34.73m-16.62-8.65a8.66,8.66,0,0,0-8.65,8.65c0,2,2.71,9.18,8.65,20.09C106.2,61.12,108.9,54,108.9,51.94a8.66,8.66,0,0,0-8.64-8.65" transform="translate(0 0)"/><path class="cls-3" d="M248.42,5.2H238V91.56H280.4V82.29h-32ZM375.63,47.59,357.08,36A11.42,11.42,0,1,1,374.47,24.4l10.43-1.74c-2.32-12.17-13.33-19.7-25.5-18a22.67,22.67,0,0,0-18,25.5,22.66,22.66,0,0,0,9.85,15.07l18.55,11.59a15.39,15.39,0,0,1,6.38,10.43,13.39,13.39,0,0,1-26.67,2.32l-10.43.58a24.14,24.14,0,1,0,48.11-4.06,23.35,23.35,0,0,0-11.59-18.54m-47.1-23.1a219.32,219.32,0,0,1,0,47.78,22.25,22.25,0,0,1-19.71,19.81c-12.75,1.75-23.76-7.57-25.5-19.81a219.32,219.32,0,0,1,0-47.78A22.27,22.27,0,0,1,303,4.67c12.75-1.74,23.76,7.58,25.5,19.82M318.1,25.75c-1-6.13-6.16-10.75-12-10.75a11.48,11.48,0,0,0-1.89.16,11.78,11.78,0,0,0-10.49,10.56,198.83,198.83,0,0,0,0,45.29c1,6.13,6.17,10.75,12,10.75a11.48,11.48,0,0,0,1.89-.16A11.8,11.8,0,0,0,318.1,71a198.26,198.26,0,0,0,0-45.29M391.56,15.6h16.57v76h10.4v-76H435V5.17H391.56ZM341.41,127.74a219.42,219.42,0,0,1,0,47.79,22.26,22.26,0,0,1-19.71,19.81c-12.75,1.75-23.76-7.57-25.5-19.81a219.42,219.42,0,0,1,0-47.79,22.26,22.26,0,0,1,19.7-19.81c12.76-1.75,23.77,7.58,25.51,19.81M331,129c-1-6.13-6.16-10.75-12-10.75a11.39,11.39,0,0,0-1.89.16A11.78,11.78,0,0,0,306.63,129a198.83,198.83,0,0,0,0,45.29c1,6.12,6.17,10.74,12,10.74a12.53,12.53,0,0,0,1.89-.15A11.81,11.81,0,0,0,331,174.29,199.32,199.32,0,0,0,331,129m18.52-20.58v10.43h16.57v76h10.39v-76H393V108.43Zm-68.23,19.51a211.56,211.56,0,0,1,1.49,23.68,211.71,211.71,0,0,1-1.49,23.68c-1.74,12.06-9.36,19.53-22.93,19.53l-20.35,0V108.42h20.35c13.57,0,21.19,7.47,22.93,19.53m-8.95,23.68a195.55,195.55,0,0,0-1.47-22.44,12.5,12.5,0,0,0-12-10.59H248.39v66.06h10.49a12.5,12.5,0,0,0,12-10.59,195.55,195.55,0,0,0,1.47-22.44" transform="translate(0 0)"/></g></g></g></g></g></svg>